HIERARCHY
ROOT hip
{
  OFFSET 0 0 0
  CHANNELS 6 Xposition Yposition Zposition Zrotation Yrotation Xrotation
  JOINT abdomen
  {
    OFFSET 0 20.6881 -0.73152
    CHANNELS 3 Zrotation Xrotation Yrotation
    JOINT chest
    {
      OFFSET 0 11.7043 -0.48768
      CHANNELS 3 Zrotation Xrotation Yrotation
      JOINT neck
      {
        OFFSET 0 22.1894 -2.19456
        CHANNELS 3 Zrotation Xrotation Yrotation
        JOINT head
        {
          OFFSET -0.24384 7.07133 1.2192
          CHANNELS 3 Zrotation Xrotation Yrotation
          JOINT leftEye
          {
            OFFSET 4.14528 8.04674 8.04672
            CHANNELS 3 Zrotation Xrotation Yrotation
            End Site
            {
              OFFSET 1 0 0
            }
          }
          JOINT rightEye
          {
            OFFSET -3.6576 8.04674 8.04672
            CHANNELS 3 Zrotation Xrotation Yrotation
            End Site
            {
              OFFSET 1 0 0
            }
          }
        }
      }
      JOINT rCollar
      {
        OFFSET -2.68224 19.2634 -4.8768
        CHANNELS 3 Zrotation Xrotation Yrotation
        JOINT rShldr
        {
          OFFSET -8.77824 -1.95073 1.46304
          CHANNELS 3 Zrotation Xrotation Yrotation
          JOINT rForeArm
          {
            OFFSET -28.1742 -1.7115 0.48768
            CHANNELS 3 Zrotation Xrotation Yrotation
            JOINT rHand
            {
              OFFSET -22.5879 0.773209 7.07136
              CHANNELS 3 Zrotation Xrotation Yrotation
              JOINT rThumb1
              {
                OFFSET -1.2192 -0.487915 3.41376
                CHANNELS 3 Zrotation Xrotation Yrotation
                JOINT rThumb2
                {
                  OFFSET -3.37035 -0.52449 3.41376
                  CHANNELS 3 Zrotation Xrotation Yrotation
                  End Site
                  {
                    OFFSET -1.78271 -1.18214 1.43049
                  }
                }
              }
              JOINT rIndex1
              {
                OFFSET -7.75947 0.938293 5.60832
                CHANNELS 3 Zrotation Xrotation Yrotation
                JOINT rIndex2
                {
                  OFFSET -2.54057 -0.884171 1.56538
                  CHANNELS 3 Zrotation Xrotation Yrotation
                  End Site
                  {
                    OFFSET -1.62519 -0.234802 1.16502
                  }
                }
              }
              JOINT rMid1
              {
                OFFSET -8.24714 1.18213 3.41376
                CHANNELS 3 Zrotation Xrotation Yrotation
                JOINT rMid2
                {
                  OFFSET -3.10165 -0.590103 1.0647
                  CHANNELS 3 Zrotation Xrotation Yrotation
                  End Site
                  {
                    OFFSET -2.48547 -0.328903 0.83742
                  }
                }
              }
              JOINT rRing1
              {
                OFFSET -8.82822 0.546677 1.51678
                CHANNELS 3 Zrotation Xrotation Yrotation
                JOINT rRing2
                {
                  OFFSET -2.60934 -0.819778 -0.0198488
                  CHANNELS 3 Zrotation Xrotation Yrotation
                  End Site
                  {
                    OFFSET -2.33842 -0.294052 0.168128
                  }
                }
              }
              JOINT rPinky1
              {
                OFFSET -8.27202 -0.0477905 -0.4584
                CHANNELS 3 Zrotation Xrotation Yrotation
                JOINT rPinky2
                {
                  OFFSET -1.82734 -0.647385 -0.700984
                  CHANNELS 3 Zrotation Xrotation Yrotation
                  End Site
                  {
                    OFFSET -1.69225 -0.51767 -0.607171
                  }
                }
              }
            }
          }
        }
      }
      JOINT lCollar
      {
        OFFSET 2.68224 19.2634 -4.8768
        CHANNELS 3 Zrotation Xrotation Yrotation
        JOINT lShldr
        {
          OFFSET 8.77824 -1.95073 1.46304
          CHANNELS 3 Zrotation Xrotation Yrotation
          JOINT lForeArm
          {
            OFFSET 28.1742 -1.7115 0.48768
            CHANNELS 3 Zrotation Xrotation Yrotation
            JOINT lHand
            {
              OFFSET 22.5879 0.773209 7.07136
              CHANNELS 3 Zrotation Xrotation Yrotation
              JOINT lThumb1
              {
                OFFSET 1.2192 -0.487915 3.41376
                CHANNELS 3 Zrotation Xrotation Yrotation
                JOINT lThumb2
                {
                  OFFSET 3.37035 -0.52449 3.41376
                  CHANNELS 3 Zrotation Xrotation Yrotation
                  End Site
                  {
                    OFFSET 1.78271 -1.18214 1.43049
                  }
                }
              }
              JOINT lIndex1
              {
                OFFSET 7.75947 0.938293 5.60832
                CHANNELS 3 Zrotation Xrotation Yrotation
                JOINT lIndex2
                {
                  OFFSET 2.54057 -0.884171 1.56538
                  CHANNELS 3 Zrotation Xrotation Yrotation
                  End Site
                  {
                    OFFSET 1.62519 -0.234802 1.16502
                  }
                }
              }
              JOINT lMid1
              {
                OFFSET 8.24714 1.18213 3.41376
                CHANNELS 3 Zrotation Xrotation Yrotation
                JOINT lMid2
                {
                  OFFSET 3.10165 -0.590103 1.0647
                  CHANNELS 3 Zrotation Xrotation Yrotation
                  End Site
                  {
                    OFFSET 2.48547 -0.328903 0.83742
                  }
                }
              }
              JOINT lRing1
              {
                OFFSET 8.82822 0.546677 1.51678
                CHANNELS 3 Zrotation Xrotation Yrotation
                JOINT lRing2
                {
                  OFFSET 2.60934 -0.819778 -0.0198488
                  CHANNELS 3 Zrotation Xrotation Yrotation
                  End Site
                  {
                    OFFSET 2.33842 -0.294052 0.168128
                  }
                }
              }
              JOINT lPinky1
              {
                OFFSET 8.27202 -0.0477905 -0.4584
                CHANNELS 3 Zrotation Xrotation Yrotation
                JOINT lPinky2
                {
                  OFFSET 1.82734 -0.647385 -0.700984
                  CHANNELS 3 Zrotation Xrotation Yrotation
                  End Site
                  {
                    OFFSET 1.69225 -0.51767 -0.607171
                  }
                }
              }
            }
          }
        }
      }
    }
  }
  JOINT rButtock
  {
    OFFSET -8.77824 4.35084 1.2192
    CHANNELS 3 Zrotation Xrotation Yrotation
    JOINT rThigh
    {
      OFFSET 0 -1.70687 -2.19456
      CHANNELS 3 Zrotation Xrotation Yrotation
      JOINT rShin
      {
        OFFSET 0 -36.8199 0.73152
        CHANNELS 3 Zrotation Xrotation Yrotation
        JOINT rFoot
        {
          OFFSET 0.73152 -45.1104 -5.12064
          CHANNELS 3 Zrotation Xrotation Yrotation
          End Site
          {
            OFFSET -1.1221 -3.69964 12.103
          }
        }
      }
    }
  }
  JOINT lButtock
  {
    OFFSET 8.77824 4.35084 1.2192
    CHANNELS 3 Zrotation Xrotation Yrotation
    JOINT lThigh
    {
      OFFSET 0 -1.70687 -2.19456
      CHANNELS 3 Zrotation Xrotation Yrotation
      JOINT lShin
      {
        OFFSET 0 -36.8199 0.73152
        CHANNELS 3 Zrotation Xrotation Yrotation
        JOINT lFoot
        {
          OFFSET -0.73152 -45.1104 -5.12064
          CHANNELS 3 Zrotation Xrotation Yrotation
          End Site
          {
            OFFSET 1.1221 -3.69964 12.103
          }
        }
      }
    }
  }
}
MOTION
Frames:	5
Frame Time:	0.03333
0.0 0.0 0.0 0.0 0.0 0.0 0.0 0.0 0.0 0.0 0.0 0.0 0.0 0.0 0.0 0.0 0.0 0.0 0.0 0.0 0.0 0.0 0.0 0.0 0.0 0.0 0.0 0.0 0.0 0.0 0.0 0.0 0.0 0.0 0.0 0.0 0.0 0.0 0.0 0.0 0.0 0.0 0.0 0.0 0.0 0.0 0.0 0.0 0.0 0.0 0.0 0.0 0.0 0.0 0.0 0.0 0.0 0.0 0.0 0.0 0.0 0.0 0.0 0.0 0.0 0.0 0.0 0.0 0.0 0.0 0.0 0.0 0.0 0.0 0.0 0.0 0.0 0.0 0.0 0.0 0.0 0.0 0.0 0.0 0.0 0.0 0.0 0.0 0.0 0.0 0.0 0.0 0.0 0.0 0.0 0.0 0.0 0.0 0.0 0.0 0.0 0.0 0.0 0.0 0.0 0.0 0.0 0.0 0.0 0.0 0.0 0.0 0.0 0.0 0.0 0.0 0.0 0.0 0.0 0.0 0.0 0.0 0.0 0.0 0.0 0.0 0.0 0.0 0.0 0.0 0.0 0.0
-0.0419 59.823499999999996 0.1503 0.077879 -7.906905 -1.104787 0.198564 3.680394 -5.994233 1.665594 -13.455592 -172.382952 7.803672 -17.345381 57.176563 -35.733121 42.582809 -126.197896 -151.425258 -6.502397 -25.149159 -141.587013 -25.525273 -66.064429 -77.810025 -2.359549 155.818142 18.074264 -36.804832 14.620819 -173.615841 5.674083 -28.487588 0.051047 14.912934 -45.448318 -174.658445 -14.875762 59.733065 147.491397 45.115358 -139.047196 -9.164356 50.967955 25.355255 22.783619 79.061538 34.016336 -177.727285 -38.456369 -124.166773 -126.324939 57.001941 -71.878251 -80.681385 42.041251 -103.686047 57.304351 39.427173 -84.130076 100.218803 33.294373 -50.216389 18.984416 -43.148627 0.706855 -73.427756 29.389576 -21.545922 -4.616401 13.9888 5.535508 17.358139 84.663404 175.348297 -38.587784 -51.473772 31.502617 165.467027 0.924492 -57.559996 5.732164 -12.499366 -14.265269 160.096218 9.103595 -64.337957 -103.058027 -54.234137 -35.609592 5.739493 -70.58251 -19.967602 -117.439543 74.190321 65.17904 -70.287202 3.8141 -175.164094 -58.811751 23.780247 -132.966824 129.651666 5.473217 44.837372 124.43421 -52.981117 60.849973 -47.473845 16.420032 -100.088223 5.266441 51.617084 -0.0 -8.412407 -3.514518 -82.126256 58.896654 -56.657864 -113.017307 47.623634 7.880867 94.755815 -2.259244 50.240997 1.708434 -4.195609 -0.491156 -121.725627 -58.231438 78.058956 57.754866
-0.8318000000000001 61.8832 0.2168 -7.321079 36.031861 3.138776 0.295888 7.032327 -107.537163 3.090377 3.43018 110.356647 -8.852475 15.818682 -20.801465 26.529605 -26.775883 19.0843 -2.375759 -0.172816 8.31969 -8.541211 -0.462801 6.191584 3.453034 -26.57656 -7.264127 -105.427349 -6.156831 -149.580085 -102.854206 -15.0161 -86.47712 36.525415 -81.607402 21.775587 -71.352578 45.343043 46.087966 -0.132352 13.379917 9.401201 -20.184717 -75.924793 -75.226003 -137.41532 4.711314 105.632067 5.870112 2.959055 -6.115237 19.365112 -62.07552 -1.269202 1.315116 13.588168 -2.970622 3.251371 7.103261 -4.211648 -141.107386 -6.462425 -124.193539 -140.023398 -6.643021 -126.452272 17.188908 42.003668 -19.336682 -55.209095 -5.12548 -59.44704 6.507021 -10.057337 -43.53912 3.822858 25.463771 4.041823 168.167621 3.84465 -83.672523 137.070364 0.467515 -76.796726 165.942909 -28.290101 -124.37542 -125.494892 -82.051218 -75.060913 157.77938 -1.010709 -139.84306 160.145388 -5.762126 -136.900077 4.482957 -3.247777 -9.589662 -1.40336 -17.946476 9.553029 1.182405 -4.758418 -8.603767 -8.852273 48.418844 -10.267176 148.777173 74.61791 27.368937 -179.592867 45.501546 -0.570789 15.129453 55.00185 47.05613 -54.83231 61.597689 -31.804731 0.844419 -2.629216 -1.04595 33.720631 -41.888316 -135.01044 -13.317168 -74.420214 32.624848 105.061173 -20.514518 178.79671
-2.1557 66.89399999999999 0.3075 -5.342688 38.794582 2.304629 -4.03948 16.466986 -9.16798 6.89315 -10.62259 9.177226 9.378334 25.051747 77.656566 -45.130476 -3.595687 -84.837794 -8.672484 -0.921434 12.106887 -5.986764 0.31086 -5.939393 -143.571336 28.527688 153.058173 -70.765521 12.407904 47.242414 -174.693227 -5.410274 -112.434545 -11.615106 -28.903454 -7.510563 -6.349832 17.225804 4.17339 56.387155 -56.370004 -4.972167 28.604607 -12.375777 -24.935933 -2.561815 4.325257 28.355275 4.415151 -17.69474 -0.145403 -166.999405 -1.995708 155.004482 -79.902399 69.554704 88.438924 -146.691801 -30.139658 -174.09131 -123.592725 69.822887 161.527749 -79.283807 -56.485717 -87.906375 0.161611 -1.20018 -1.441511 -80.319053 14.927517 -24.024287 -13.65631 9.660425 -46.198979 20.349659 51.787727 -4.769484 170.432193 -14.664686 -80.550581 -24.586261 -47.008815 -25.939257 148.296104 -53.01617 -126.909247 -21.006349 9.812933 -4.07227 128.945969 37.93685 -138.326065 126.794608 86.134809 -109.170109 119.933955 46.699592 -131.244885 -34.803996 -21.731196 -13.336026 39.607201 77.790134 -81.354996 2.558179 -28.701643 38.384601 178.430493 75.630632 1.620166 175.253086 35.190602 0.0 -9.279142 68.572495 -36.969359 -133.133958 -32.548168 -19.59959 173.266321 73.009339 -0.0 -155.053645 17.235518 150.523983 55.679824 -58.44929 170.320108 36.540615 40.168076 52.821166
-2.6957 69.5255 0.27290000000000003 -5.923359 42.302701 1.240354 0.261365 18.340906 -0.0 1.548162 -14.444128 -2.05927 -6.088211 36.372705 -105.959171 55.269419 24.594352 94.924648 -19.026792 2.610791 -15.486808 -1.010249 -0.113099 12.775172 -141.100833 22.461238 146.813559 -87.73231 28.40694 55.981088 -169.985535 14.201389 -115.320265 -10.812606 -46.690534 -18.002728 169.133404 -42.357852 80.350378 15.506978 -68.33605 16.136797 -110.59138 63.449278 133.077466 27.889101 -85.839226 18.191265 -153.678391 -2.8166 116.82145 -23.698064 38.056832 60.115255 163.009544 -89.355468 155.160444 176.254969 -1.162544 154.209672 -26.594555 -52.197468 -10.686968 -80.401483 -54.92818 -86.654363 -0.66649 -13.803268 1.279516 4.211448 80.666188 -108.693514 -143.419681 18.149971 -105.765049 -177.206288 -7.371395 -147.039376 158.636036 -11.496244 -90.069007 169.381353 -18.891409 -108.586203 -15.052773 -0.303164 8.04461 9.803516 12.253751 -9.468487 -31.025732 1.084969 14.977125 153.190452 36.55511 -88.00055 52.872431 -81.039053 77.153945 149.409889 55.702573 -147.660502 104.592097 -35.717136 105.11769 45.209402 -66.164522 53.875429 3.657639 0.707987 3.695942 -6.980444 -38.905457 -0.0 27.51926 57.479083 -16.101746 146.637676 -30.137356 38.572493 179.996541 70.932315 0.00366 -161.866736 10.750036 -3.130027 30.450693 75.423194 49.438198 -106.741514 55.803618 11.436757
